<svg xmlns="http://www.w3.org/2000/svg" viewBox="0 0 96 96" fill="none">
  <circle cx="48" cy="48" r="44.5" stroke="#8F5E2B" stroke-width="3"/>
  <circle cx="48" cy="48" r="38" stroke="#8F5E2B" stroke-width="1.1"/>
  <g fill="#C29B3C"><path d="M89.2 45.9 L91.3 48.0 L89.2 50.1 L87.1 48.0 Z"/><path d="M77.1 75.0 L79.2 77.1 L77.1 79.2 L75.0 77.1 Z"/><path d="M48.0 87.1 L50.1 89.2 L48.0 91.3 L45.9 89.2 Z"/><path d="M18.9 75.0 L21.0 77.1 L18.9 79.2 L16.8 77.1 Z"/><path d="M6.8 45.9 L8.9 48.0 L6.8 50.1 L4.7 48.0 Z"/><path d="M18.9 16.8 L21.0 18.9 L18.9 21.0 L16.8 18.9 Z"/><path d="M48.0 4.7 L50.1 6.8 L48.0 8.9 L45.9 6.8 Z"/><path d="M77.1 16.8 L79.2 18.9 L77.1 21.0 L75.0 18.9 Z"/></g>
  <path d="M48 50 C42 46.5 34 46 27 48.5 L27 60.5 C34 58 42 58.5 48 62 C54 58.5 62 58 69 60.5 L69 48.5 C62 46 54 46.5 48 50 Z"
        fill="#F2E4CC" stroke="#8F5E2B" stroke-width="2" stroke-linejoin="round"/>
  <path d="M48 50 L48 62" stroke="#8F5E2B" stroke-width="1.6"/>
  <path d="M31.5 51.8 C35.5 50.4 39.5 50.4 43.5 51.8 M31.5 55.6 C35.5 54.2 39.5 54.2 43.5 55.6"
        stroke="#8F5E2B" stroke-width="1" stroke-linecap="round" opacity="0.55"/>
  <path d="M52.5 51.8 C56.5 50.4 60.5 50.4 64.5 51.8 M52.5 55.6 C56.5 54.2 60.5 54.2 64.5 55.6"
        stroke="#8F5E2B" stroke-width="1" stroke-linecap="round" opacity="0.55"/>
  <g transform="translate(58.5 33) rotate(-32)">
    <rect x="-2.4" y="-10" width="4.8" height="14" rx="2.2" fill="#C29B3C" stroke="#8F5E2B" stroke-width="1.4"/>
    <path d="M-2.4 4 L0 10.5 L2.4 4 Z" fill="#8F5E2B"/>
    <path d="M0 6.2 L0 9.2" stroke="#F2E4CC" stroke-width="0.8"/>
  </g>
  <path d="M33 70.5 L63 70.5 L59.5 74.5 L63 78.5 L33 78.5 L36.5 74.5 Z"
        fill="#C29B3C" fill-opacity="0.9" stroke="#8F5E2B" stroke-width="1.2" stroke-linejoin="round"/>
  <path d="M39 74.5 L57 74.5" stroke="#8F5E2B" stroke-width="1" stroke-linecap="round" opacity="0.6"/>
</svg>